<?xml version="1.0" encoding="UTF-8" standalone="no"?>
<!-- Created with Inkscape (http://www.inkscape.org/) -->

<svg
   width="612.63733mm"
   height="105.8312mm"
   viewBox="0 0 612.63733 105.8312"
   version="1.1"
   id="svg1"
   xml:space="preserve"
   xmlns="http://www.w3.org/2000/svg"
   xmlns:svg="http://www.w3.org/2000/svg"><defs
     id="defs1" /><g
     id="layer1"
     transform="translate(345.8433,14.929468)"><g
       id="g2"
       transform="matrix(0.26458333,0,0,0.26458333,-365.07957,100.63894)"><g
         id="Symbol"
         transform="translate(-605.3803)"><g
           fill="#879dab"
           stroke="none"
           id="g1"><path
             d="M 2938,6380 C 2387,6327 1907,6160 1460,5866 1154,5665 872,5396 650,5095 374,4721 175,4245 91,3759 27,3388 38,2923 120,2548 275,1836 672,1201 1250,738 1700,378 2271,149 2890,79 c 58,-6 202,-12 320,-12 282,0 503,26 756,87 902,220 1680,841 2079,1661 303,622 402,1333 279,2005 -90,496 -313,984 -634,1390 -111,140 -378,404 -519,513 -456,352 -957,560 -1549,643 -126,17 -558,26 -684,14 z m 687,-220 c 77,-11 189,-32 250,-46 127,-29 345,-94 345,-103 0,-4 -341,-188 -757,-409 l -757,-403 -41,22 c -22,13 -58,26 -79,29 l -40,5 -148,370 c -82,204 -150,377 -153,386 -10,29 325,119 570,153 169,24 174,24 430,21 183,-3 273,-8 380,-25 z m -1292,-546 157,-387 -24,-28 c -13,-16 -30,-44 -36,-64 -6,-19 -17,-35 -23,-35 -7,-1 -382,-54 -834,-119 -453,-64 -823,-115 -823,-111 0,3 43,62 95,132 269,358 584,630 980,844 90,49 321,153 341,154 6,0 81,-174 167,-386 z m 2026,347 37,-20 129,-440 128,-440 -35,-39 c -20,-22 -37,-44 -39,-50 -3,-8 -290,13 -929,66 -775,65 -925,80 -928,92 -2,11 223,134 785,432 433,228 794,416 801,417 7,0 30,-8 51,-18 z m 204,-92 c 420,-211 850,-600 1137,-1027 34,-51 60,-95 57,-98 -4,-4 -805,157 -859,172 -10,3 -18,12 -18,21 0,58 -78,133 -137,133 -18,0 -33,2 -33,5 0,3 -52,184 -116,403 -63,218 -117,405 -120,415 -3,9 -3,17 1,17 3,0 42,-19 88,-41 z m -913,-894 c 494,-41 904,-75 912,-75 7,-1 24,-23 36,-51 l 24,-50 -169,-269 -168,-270 h -44 c -24,0 -63,-9 -86,-21 l -42,-21 -679,402 c -373,222 -688,409 -699,416 -18,13 -18,14 -1,14 10,0 422,-34 916,-75 z m -1175,18 48,-48 -31,-225 c -18,-124 -60,-417 -94,-652 l -62,-428 h -44 c -24,0 -51,-4 -61,-10 -16,-8 -146,87 -777,566 -418,317 -761,578 -763,580 -3,3 0,9 5,14 8,8 1633,247 1700,249 25,1 42,-9 79,-46 z m 915,-414 690,-411 v -38 -37 l -147,-46 c -82,-26 -453,-148 -825,-271 l -676,-223 -22,30 -22,29 98,669 c 82,557 101,669 114,669 8,0 31,9 50,19 19,11 38,20 43,20 4,1 318,-184 697,-410 z m 1959,175 c 251,-53 457,-97 457,-98 9,-9 123,-247 153,-320 113,-272 189,-599 209,-901 l 9,-130 -231,-273 c -224,-265 -232,-273 -264,-270 l -34,3 -418,1013 -419,1013 26,30 c 15,16 33,29 41,29 8,0 220,-43 471,-96 z m -593,2 c 6,-5 804,-1949 802,-1952 -2,-2 -274,272 -605,609 l -600,612 13,32 c 20,46 17,82 -9,128 l -23,41 170,271 171,272 40,-6 c 22,-3 41,-6 41,-7 z M 1415,4145 c 402,-307 733,-561 737,-564 31,-26 -38,-31 -947,-65 -516,-19 -941,-33 -944,-30 -2,2 6,77 18,165 49,346 162,693 324,986 44,82 52,91 66,79 9,-7 345,-264 746,-571 z m 2710,-142 c 17,-16 39,-32 48,-38 15,-9 13,-64 -23,-695 -22,-377 -40,-686 -40,-687 0,-2 -8,-3 -19,-3 -10,0 -30,-9 -45,-21 l -27,-21 -342,200 c -188,110 -542,317 -787,460 -245,144 -445,266 -445,273 0,8 312,116 820,285 451,150 822,272 824,273 2,1 18,-11 36,-26 z m 590,-425 c 220,-222 500,-505 623,-629 l 223,-225 -17,-31 -18,-30 -585,-82 c -322,-45 -602,-85 -621,-88 -31,-4 -37,-1 -53,27 -11,17 -34,39 -53,47 -19,9 -34,21 -34,27 -1,6 16,316 37,688 l 37,678 26,9 c 14,5 27,10 30,10 3,1 185,-180 405,-401 z M 2128,3464 c -2,-9 -224,-178 -494,-375 l -492,-359 -38,16 c -26,11 -53,14 -84,10 -25,-3 -55,-7 -67,-8 -16,-2 -106,76 -362,316 -204,192 -341,327 -341,338 0,16 10,18 83,19 45,0 431,13 857,28 984,36 942,35 938,15 z m 59,-88 22,-23 -104,-467 c -58,-256 -105,-468 -105,-470 0,-2 -14,-6 -32,-10 -17,-3 -47,-18 -65,-32 l -34,-26 -339,122 -338,122 -7,45 c -5,37 -3,47 12,58 10,7 229,169 488,359 258,190 472,346 475,346 3,0 15,-11 27,-24 z m 1013,-430 c 421,-245 769,-452 775,-460 5,-8 7,-18 3,-21 -3,-4 -417,-41 -920,-84 l -913,-77 -16,26 c -9,15 -29,36 -45,47 l -28,21 104,465 105,465 43,7 c 27,4 55,17 75,35 18,16 37,28 42,26 6,-2 354,-204 775,-450 z M 893,2670 c -7,-71 -4,-98 10,-126 l 15,-30 -206,-248 -206,-248 -27,59 C 339,2391 251,2810 250,3163 v 138 l 323,-303 c 270,-254 322,-307 320,-328 z m 5277,366 c -17,-270 -58,-489 -135,-721 -38,-117 -134,-350 -140,-343 -1,2 -35,117 -75,256 l -72,253 26,25 c 51,52 58,134 15,189 -21,26 -21,26 -2,48 11,12 102,120 203,240 100,120 184,216 186,214 2,-2 -1,-74 -6,-161 z m -642,-487 21,-41 -456,-782 c -251,-429 -461,-787 -467,-794 -9,-9 -19,-10 -42,-2 l -29,10 -174,676 -174,675 35,37 c 20,20 40,51 45,67 l 10,30 584,82 c 321,44 594,82 605,82 16,1 27,-10 42,-40 z M 1513,2404 c 301,-109 327,-120 327,-142 0,-12 7,-39 15,-58 l 15,-36 -411,-469 c -226,-259 -413,-468 -415,-466 -2,2 1,219 6,483 5,263 10,538 10,610 v 132 l 29,12 c 16,6 39,23 52,36 13,14 28,23 34,21 5,-2 157,-57 338,-123 z M 996,1991 c -3,-262 -9,-527 -12,-589 -8,-134 -2,-135 -120,20 -93,121 -192,278 -272,428 l -61,115 215,257 c 181,216 218,255 235,251 l 22,-6 z m 4695,460 c 3,-3 43,-133 88,-289 l 82,-282 -62,-108 c -75,-130 -175,-278 -265,-392 -140,-176 -514,-528 -595,-558 -13,-5 -72,-13 -130,-17 l -105,-7 -16,40 -16,40 462,796 461,796 45,-6 c 25,-4 48,-9 51,-13 z m -1736,-69 c -6,-5 -361,-192 -790,-417 -429,-224 -806,-422 -838,-439 -52,-28 -59,-29 -70,-15 -17,22 -78,59 -99,59 -19,0 -16,-14 -68,300 -29,169 -38,246 -30,248 27,9 62,50 74,87 11,32 19,41 43,44 67,8 1683,139 1733,140 30,0 50,-3 45,-7 z m 90,-62 c 10,-11 38,-26 62,-31 38,-10 44,-16 52,-48 90,-346 333,-1280 337,-1292 3,-11 -7,-23 -29,-36 -19,-11 -42,-38 -53,-60 l -19,-40 -1050,297 c -859,244 -1050,301 -1050,315 0,12 239,141 860,465 473,247 863,449 866,449 3,1 14,-8 24,-19 z M 1969,2110 c 13,0 21,-9 25,-27 10,-47 86,-497 86,-508 0,-5 -13,-19 -29,-29 -35,-24 -57,-59 -66,-108 -4,-22 -14,-39 -24,-42 -143,-41 -861,-236 -870,-236 -7,0 -11,5 -9,11 2,6 190,224 418,484 349,399 416,472 431,464 10,-5 27,-9 38,-9 z M 3345,1045 c 741,-208 1053,-300 1060,-312 6,-9 24,-32 41,-52 l 31,-35 -30,-68 c -34,-77 -25,-71 -205,-139 -310,-116 -653,-180 -984,-183 -97,0 -178,1 -181,4 -89,106 -817,1053 -817,1063 0,18 9,27 23,21 7,-2 485,-137 1062,-299 z m -1319,264 c 31,-35 81,-51 134,-44 l 46,6 380,-487 c 208,-268 385,-496 392,-506 13,-17 10,-18 -45,-12 -640,65 -1267,346 -1732,776 l -61,57 42,12 c 271,74 805,218 814,218 6,1 19,-9 30,-20 z M 4840,746 c 0,-5 -223,-138 -278,-165 -24,-13 -46,-20 -49,-18 -2,3 3,19 11,36 12,22 27,33 59,42 27,7 56,26 81,52 35,37 44,41 105,47 36,4 67,8 69,9 1,0 2,-1 2,-3 z"
             transform="scale(0.075)"
             id="path1" /></g></g><g
         id="text"
         stroke="none"
         transform="matrix(0.1,0,0,-0.1,500,425)"><path
           d="m 4482.0452,3462.2649 c -8,-36 -135,-818 -135,-834 0,-9 10,-14 29,-14 22,0 30,6 34,23 3,12 27,168 53,347 26,179 50,328 53,332 3,4 67,-142 141,-323 74,-182 141,-333 148,-336 8,-3 19,1 26,8 11,12 228,469 299,629 l 20,45 51,-360 51,-360 33,-3 c 17,-2 32,1 32,5 0,12 -119,803 -126,836 -14,68 -36,34 -203,-323 -91,-193 -168,-347 -172,-343 -4,4 -71,162 -150,351 -111,263 -148,342 -161,342 -10,0 -20,-10 -23,-22 z"
           id="path2"
           style="fill:#879dab" /><path
           d="m 6520,3055 v -435 h 30 30 l 2,362 3,361 318,-366 c 175,-202 325,-367 333,-367 12,0 14,63 14,435 v 435 h -30 -30 l -2,-365 -3,-365 -320,370 c -176,203 -326,370 -332,370 -10,0 -13,-94 -13,-435 z"
           id="path3"
           style="fill:#879dab" /><path
           d="m 8645,3478 c -2,-7 -35,-202 -73,-433 l -68,-420 29,-3 c 16,-2 30,-2 32,0 2,2 28,162 57,356 32,213 56,348 61,340 5,-7 68,-157 141,-333 108,-263 136,-320 151,-320 16,0 50,66 175,333 109,234 157,327 162,315 4,-10 28,-170 54,-355 l 47,-338 h 34 c 32,0 34,2 29,28 -6,28 -126,827 -126,837 0,3 -8,5 -19,5 -14,0 -53,-74 -182,-350 -90,-192 -166,-350 -169,-350 -3,0 -70,157 -150,348 -104,246 -151,348 -163,350 -9,2 -19,-2 -22,-10 z"
           id="path4"
           style="fill:#879dab" /><path
           d="m 11316,3078 c -37,-227 -70,-423 -73,-435 -5,-20 -1,-23 29,-23 h 33 l 55,361 c 34,230 57,355 62,343 4,-11 66,-160 138,-333 71,-173 133,-318 139,-324 5,-5 16,-7 23,-4 7,3 83,156 168,340 85,184 156,332 157,329 3,-8 103,-695 103,-705 0,-4 16,-7 36,-7 29,0 34,3 30,18 -3,9 -32,202 -66,427 -34,226 -65,414 -70,419 -5,5 -15,6 -22,3 -7,-2 -85,-159 -172,-346 -88,-188 -162,-344 -166,-346 -4,-2 -72,152 -152,343 -116,276 -150,348 -165,350 -19,3 -24,-24 -87,-410 z"
           id="path5"
           style="fill:#879dab" /><path
           d="m 15417,3093 c -92,-219 -173,-415 -182,-435 l -15,-38 h 34 33 l 63,150 63,150 h 186 187 l 61,-147 61,-148 36,-3 c 20,-2 36,-1 36,1 0,2 -79,193 -176,423 -97,230 -178,425 -181,432 -3,6 -13,12 -23,12 -13,0 -54,-89 -183,-397 z m 269,69 c 41,-97 74,-180 74,-184 0,-5 -72,-8 -160,-8 -88,0 -160,4 -160,9 0,4 34,90 75,190 41,100 75,187 75,194 1,20 19,-17 96,-201 z"
           id="path6"
           style="fill:#879dab" /><path
           d="m 217.0452,3444.2649 v -30 h 145 145 v -400 -400 h 30 30 v 400 400 h 145 145 v 30 30 h -320 -320 z"
           id="path7"
           style="fill:#879dab" /><path
           d="m 1367.0452,3044.2649 v -430 h 30 30 v 215 215 h 290 290 v -215 -215 h 30 30 v 430 430 h -30 -30 l -2,-187 -3,-188 -287,-3 -288,-2 v 190 190 h -30 -30 z"
           id="path8"
           style="fill:#879dab" /><path
           d="m 2707.0452,3044.2649 v -430 h 205 205 v 30 30 h -175 -175 v 190 189 l 153,3 152,3 v 25 25 l -152,3 -153,3 v 149 150 h 170 170 v 30 30 h -200 -200 z"
           id="path9"
           style="fill:#879dab" /><path
           d="m 5877.0452,3044.2649 v -430 h 30 30 v 430 430 h -30 -30 z"
           id="path10"
           style="fill:#879dab" /><path
           d="m 7832.9548,3030.9849 v -430 h 30 30 v 430 430 h -30 -30 z"
           id="path11"
           style="fill:#879dab" /><path
           d="m 10020,3223 c 0,-372 16,-449 110,-537 59,-55 124,-76 234,-76 145,1 234,49 287,155 39,80 49,171 49,473 v 242 h -35 -35 v -293 c 0,-231 -3,-304 -15,-344 -36,-121 -118,-177 -260,-177 -121,1 -191,40 -236,131 -23,47 -24,57 -29,363 l -5,315 -32,3 -33,3 z"
           id="path12"
           style="fill:#879dab" /><path
           d="m 13390,3476 c 0,-2 83,-197 183,-433 143,-333 188,-429 203,-431 16,-2 46,61 202,425 100,235 182,432 182,436 0,5 -14,7 -32,5 l -32,-3 -157,-373 c -86,-205 -159,-375 -162,-378 -2,-3 -7,5 -10,18 -4,13 -74,183 -156,378 l -150,355 -36,3 c -19,2 -35,1 -35,-2 z"
           id="path13"
           style="fill:#879dab" /><path
           d="m 14660,3050 v -430 h 30 30 v 430 430 h -30 -30 z"
           id="path14"
           style="fill:#879dab" /><path
           d="m 16480,3052 v -429 l 123,-7 c 205,-11 305,21 354,113 28,54 32,155 7,204 -23,45 -82,105 -127,128 l -38,20 45,50 c 54,60 70,103 64,178 -5,72 -32,111 -96,143 -41,20 -64,23 -189,26 l -143,3 z m 287,358 c 24,-10 52,-33 63,-52 41,-65 7,-171 -74,-233 -35,-26 -38,-27 -126,-20 l -90,7 v 159 159 h 93 c 69,0 103,-5 134,-20 z m -27,-376 c 106,-31 170,-97 177,-182 5,-60 -19,-106 -76,-147 -42,-30 -45,-30 -169,-30 h -127 l -3,188 -2,187 h 73 c 40,0 97,-7 127,-16 z"
           id="path15"
           style="fill:#879dab" /><path
           d="m 17560,3050 v -430 h 225 225 v 30 30 h -195 -195 v 400 400 h -30 -30 z"
           id="path16"
           style="fill:#879dab" /><path
           d="m 18520,3050 v -430 h 205 205 v 30 30 h -175 -175 v 190 190 h 150 150 v 30 30 h -150 -150 v 150 150 l 168,2 167,3 3,28 3,27 h -200 -201 z"
           id="path17"
           style="fill:#879dab" /><text
           xml:space="preserve"
           style="font-style:normal;font-variant:normal;font-weight:normal;font-stretch:normal;font-size:1343.54px;font-family:'Perpetua Titling MT';-inkscape-font-specification:'Perpetua Titling MT';text-align:center;text-anchor:middle;fill:#879dab;fill-opacity:1;stroke-width:13.621"
           x="7111.3857"
           y="-7536.7988"
           id="text2"
           transform="scale(1,-1)"><tspan
             id="tspan2"
             style="font-style:normal;font-variant:normal;font-weight:normal;font-stretch:normal;font-size:1343.54px;font-family:'Perpetua Titling MT';-inkscape-font-specification:'Perpetua Titling MT';fill:#879dab;fill-opacity:1;stroke-width:13.621"
             x="7111.3862"
             y="-7536.7988">Portfolio and CV</tspan></text><text
           xml:space="preserve"
           style="font-style:normal;font-variant:normal;font-weight:normal;font-stretch:normal;font-size:2743.4px;font-family:'Gill Sans MT';-inkscape-font-specification:'Gill Sans MT';text-align:center;text-anchor:middle;fill:#326273;fill-opacity:1;stroke-width:27.8131"
           x="9636.2588"
           y="-5248.9487"
           id="text2-4"
           transform="scale(1,-1)"><tspan
             id="tspan2-6"
             style="font-style:normal;font-variant:normal;font-weight:normal;font-stretch:normal;font-size:2743.4px;font-family:'Gill Sans MT';-inkscape-font-specification:'Gill Sans MT';fill:#326273;fill-opacity:1;stroke-width:27.8131"
             x="9636.2578"
             y="-5248.9487">JOHAN LASSEN</tspan></text><circle
           id="path23"
           style="fill:#879dab;fill-opacity:1;stroke:#000000;stroke-width:10"
           cx="-1400.3291"
           cy="166.15254"
           r="0.12566133"
           transform="scale(1,-1)" /><g
           id="g192"
           transform="matrix(0.75747345,0,0,0.75747345,-567.46321,1705.2415)"><g
             id="g33"
             transform="matrix(-0.21320777,-0.21320777,0.21320777,-0.21320777,-6132.0538,7223.1226)"
             style="fill:#879dab"><path
               id="path28"
               style="fill:#326273;stroke-width:7.46357"
               transform="scale(1,-1)"
               d="m -3404.24,-5619.4556 h 2711.53774 l -558.16324,623.7776 h -1867.1369 z" /><path
               id="path29"
               style="fill:#95c1d1;fill-opacity:1;stroke-width:10.4006"
               transform="scale(1,-1)"
               d="M -3839.8632,-6243.2334 H 57.782365 l -429.356335,623.7776 H -3618.0291 Z" /><path
               id="path30"
               style="fill:#326273;stroke-width:11.0057"
               transform="scale(1,-1)"
               d="M -4205.5988,-6867.0112 H 90.485234 l 221.834106,623.7776 H -4012.3884 Z" /><path
               id="path31"
               style="fill:#95c1d1;fill-opacity:1;stroke-width:11.0351"
               transform="scale(1,-1)"
               d="m -3618.0291,-7480.2163 h 3265.87181 l 186.05441,623.7776 H -3997.2939 Z" /><path
               id="path32"
               style="fill:#326273;stroke-width:8.90768"
               transform="scale(1,-1)"
               d="m -3071.5838,-8103.9937 h 2223.07269 l 221.83411,623.7776 h -2838.4835 z" /><path
               id="path33"
               style="fill:#95c1d1;fill-opacity:1;stroke-width:7.13072"
               transform="scale(1,-1)"
               d="m -2457.9813,-8727.7715 h 1060.2711 l 322.0173,623.7776 h -1732.9294 z" /></g><g
             id="g39"
             transform="matrix(-0.21320777,0.21320777,-0.21320777,-0.21320777,-2166.0841,8066.2451)"
             style="fill:#879dab"><g
               id="g141"><path
                 id="path34"
                 style="fill:#326273;stroke-width:7.46357"
                 transform="scale(1,-1)"
                 d="m -3404.24,-5619.4556 h 2711.53774 l -558.16324,623.7776 h -1867.1369 z" /><path
                 id="path35"
                 style="fill:#95c1d1;fill-opacity:1;stroke-width:10.4006"
                 transform="scale(1,-1)"
                 d="M -3839.8632,-6243.2334 H 57.782365 l -429.356335,623.7776 H -3618.0291 Z" /><path
                 id="path36"
                 style="fill:#326273;stroke-width:11.0057"
                 d="M -4205.5988,-6867.0112 H 90.485234 l 221.834106,623.7776 H -4012.3884 Z"
                 transform="scale(1,-1)" /><path
                 id="path37"
                 style="fill:#95c1d1;fill-opacity:1;stroke-width:11.0351"
                 transform="scale(1,-1)"
                 d="m -3618.0291,-7480.2163 h 3265.87181 l 186.05441,623.7776 H -3997.2939 Z" /><path
                 id="path38"
                 style="fill:#326273;stroke-width:8.90768"
                 transform="scale(1,-1)"
                 d="m -3071.5838,-8103.9937 h 2223.07269 l 221.83411,623.7776 h -2838.4835 z" /><path
                 id="path39"
                 style="fill:#95c1d1;fill-opacity:1;stroke-width:7.13072"
                 transform="scale(1,-1)"
                 d="m -2457.9813,-8727.7715 h 1060.2711 l 322.0173,623.7776 h -1732.9294 z" /></g></g><g
             id="g80"
             transform="matrix(-0.21320777,-0.21320777,0.21320777,-0.21320777,-3854.8006,7223.1226)"
             style="fill:#879dab"><path
               id="path75"
               style="fill:#326273;stroke-width:7.46357"
               transform="scale(1,-1)"
               d="m -3404.24,-5619.4556 h 2711.53774 l -558.16324,623.7776 h -1867.1369 z" /><path
               id="path76"
               style="fill:#95c1d1;fill-opacity:1;stroke-width:10.4006"
               transform="scale(1,-1)"
               d="M -3839.8632,-6243.2334 H 57.782365 l -429.356335,623.7776 H -3618.0291 Z" /><path
               id="path77"
               style="fill:#326273;stroke-width:11.0057"
               transform="scale(1,-1)"
               d="M -4205.5988,-6867.0112 H 90.485234 l 221.834106,623.7776 H -4012.3884 Z" /><path
               id="path78"
               style="fill:#95c1d1;fill-opacity:1;stroke-width:11.0351"
               transform="scale(1,-1)"
               d="m -3618.0291,-7480.2163 h 3265.87181 l 186.05441,623.7776 H -3997.2939 Z" /><path
               id="path79"
               style="fill:#326273;stroke-width:8.90768"
               transform="scale(1,-1)"
               d="m -3071.5838,-8103.9937 h 2223.07269 l 221.83411,623.7776 h -2838.4835 z" /><path
               id="path80"
               style="fill:#95c1d1;fill-opacity:1;stroke-width:7.13072"
               transform="scale(1,-1)"
               d="m -2457.9813,-8727.7715 h 1060.2711 l 322.0173,623.7776 h -1732.9294 z" /></g><g
             id="g86"
             transform="matrix(-0.21320777,0.21320777,-0.21320777,-0.21320777,111.16971,8066.2451)"
             style="fill:#879dab"><path
               id="path81"
               style="fill:#326273;stroke-width:7.46357"
               transform="scale(1,-1)"
               d="m -3404.24,-5619.4556 h 2711.53774 l -558.16324,623.7776 h -1867.1369 z" /><path
               id="path82"
               style="fill:#95c1d1;fill-opacity:1;stroke-width:10.4006"
               transform="scale(1,-1)"
               d="M -3839.8632,-6243.2334 H 57.782365 l -429.356335,623.7776 H -3618.0291 Z" /><path
               id="path83"
               style="fill:#326273;stroke-width:11.0057"
               transform="scale(1,-1)"
               d="M -4205.5988,-6867.0112 H 90.485234 l 221.834106,623.7776 H -4012.3884 Z" /><path
               id="path84"
               style="fill:#95c1d1;fill-opacity:1;stroke-width:11.0351"
               transform="scale(1,-1)"
               d="m -3618.0291,-7480.2163 h 3265.87181 l 186.05441,623.7776 H -3997.2939 Z" /><path
               id="path85"
               style="fill:#326273;stroke-width:8.90768"
               transform="scale(1,-1)"
               d="m -3071.5838,-8103.9937 h 2223.07269 l 221.83411,623.7776 h -2838.4835 z" /><path
               id="path86"
               style="fill:#95c1d1;fill-opacity:1;stroke-width:7.13072"
               transform="scale(1,-1)"
               d="m -2457.9813,-8727.7715 h 1060.2711 l 322.0173,623.7776 h -1732.9294 z" /></g><g
             id="g140"
             transform="matrix(0.88584878,0,0,0.88584878,8016.9818,-5941.2485)"
             style="fill:#879dab"><g
               id="g28"
               transform="matrix(0.24068192,-0.24068192,0.24068192,0.24068192,-15024.272,10397.385)"><path
                 id="rect23"
                 style="fill:#326273;stroke-width:7.46357"
                 transform="scale(1,-1)"
                 d="m -3404.24,-5619.4556 h 2711.53774 l -558.16324,623.7776 h -1867.1369 z" /><path
                 id="rect24"
                 style="fill:#95c1d1;fill-opacity:1;stroke-width:10.4006"
                 transform="scale(1,-1)"
                 d="M -3839.8632,-6243.2334 H 57.782365 l -429.356335,623.7776 H -3618.0291 Z" /><path
                 id="rect25"
                 style="fill:#326273;stroke-width:11.0057"
                 transform="scale(1,-1)"
                 d="M -4205.5988,-6867.0112 H 90.485234 l 221.834106,623.7776 H -4012.3884 Z" /><path
                 id="rect26"
                 style="fill:#95c1d1;fill-opacity:1;stroke-width:11.0351"
                 transform="scale(1,-1)"
                 d="m -3618.0291,-7480.2163 h 3265.87181 l 186.05441,623.7776 H -3997.2939 Z" /><path
                 id="rect27"
                 style="fill:#326273;stroke-width:8.90768"
                 transform="scale(1,-1)"
                 d="m -3071.5838,-8103.9937 h 2223.07269 l 221.83411,623.7776 h -2838.4835 z" /><path
                 id="rect28"
                 style="fill:#95c1d1;fill-opacity:1;stroke-width:7.13072"
                 transform="scale(1,-1)"
                 d="m -2457.9813,-8727.7715 h 1060.2711 l 322.0173,623.7776 h -1732.9294 z" /></g><g
               id="g45"
               transform="matrix(0.24068192,0.24068192,-0.24068192,0.24068192,-10553.919,11349.153)"><path
                 id="path40"
                 style="fill:#326273;stroke-width:7.46357"
                 transform="scale(1,-1)"
                 d="m -3404.24,-5619.4556 h 2711.53774 l -558.16324,623.7776 h -1867.1369 z" /><path
                 id="path41"
                 style="fill:#95c1d1;fill-opacity:1;stroke-width:10.4006"
                 transform="scale(1,-1)"
                 d="M -3839.8632,-6243.2334 H 57.782365 l -429.356335,623.7776 H -3618.0291 Z" /><path
                 id="path42"
                 style="fill:#326273;stroke-width:11.0057"
                 transform="scale(1,-1)"
                 d="M -4205.5988,-6867.0112 H 90.485234 l 221.834106,623.7776 H -4012.3884 Z" /><path
                 id="path43"
                 style="fill:#95c1d1;fill-opacity:1;stroke-width:11.0351"
                 transform="scale(1,-1)"
                 d="m -3618.0291,-7480.2163 h 3265.87181 l 186.05441,623.7776 H -3997.2939 Z" /><path
                 id="path44"
                 style="fill:#326273;stroke-width:8.90768"
                 transform="scale(1,-1)"
                 d="m -3071.5838,-8103.9937 h 2223.07269 l 221.83411,623.7776 h -2838.4835 z" /><path
                 id="path45"
                 style="fill:#95c1d1;fill-opacity:1;stroke-width:7.13072"
                 transform="scale(1,-1)"
                 d="m -2457.9813,-8727.7715 h 1060.2711 l 322.0173,623.7776 h -1732.9294 z" /></g><g
               id="g74"
               transform="matrix(0.24068192,-0.24068192,0.24068192,0.24068192,-12419.374,10397.385)"><path
                 id="path69"
                 style="fill:#326273;stroke-width:7.46357"
                 transform="scale(1,-1)"
                 d="m -3404.24,-5619.4556 h 2711.53774 l -558.16324,623.7776 h -1867.1369 z" /><path
                 id="path70"
                 style="fill:#95c1d1;fill-opacity:1;stroke-width:10.4006"
                 transform="scale(1,-1)"
                 d="M -3839.8632,-6243.2334 H 57.782365 l -429.356335,623.7776 H -3618.0291 Z" /><path
                 id="path71"
                 style="fill:#326273;stroke-width:11.0057"
                 transform="scale(1,-1)"
                 d="M -4205.5988,-6867.0112 H 90.485234 l 221.834106,623.7776 H -4012.3884 Z" /><path
                 id="path72"
                 style="fill:#95c1d1;fill-opacity:1;stroke-width:11.0351"
                 transform="scale(1,-1)"
                 d="m -3618.0291,-7480.2163 h 3265.87181 l 186.05441,623.7776 H -3997.2939 Z" /><path
                 id="path73"
                 style="fill:#326273;stroke-width:8.90768"
                 transform="scale(1,-1)"
                 d="m -3071.5838,-8103.9937 h 2223.07269 l 221.83411,623.7776 h -2838.4835 z" /><path
                 id="path74"
                 style="fill:#95c1d1;fill-opacity:1;stroke-width:7.13072"
                 transform="scale(1,-1)"
                 d="m -2457.9813,-8727.7715 h 1060.2711 l 322.0173,623.7776 h -1732.9294 z" /></g><g
               id="g92"
               transform="matrix(0.24068192,0.24068192,-0.24068192,0.24068192,-7949.0204,11349.153)"><path
                 id="path87"
                 style="fill:#326273;stroke-width:7.46357"
                 transform="scale(1,-1)"
                 d="m -3404.24,-5619.4556 h 2711.53774 l -558.16324,623.7776 h -1867.1369 z" /><path
                 id="path88"
                 style="fill:#95c1d1;fill-opacity:1;stroke-width:10.4006"
                 transform="scale(1,-1)"
                 d="M -3839.8632,-6243.2334 H 57.782365 l -429.356335,623.7776 H -3618.0291 Z" /><path
                 id="path89"
                 style="fill:#326273;stroke-width:11.0057"
                 transform="scale(1,-1)"
                 d="M -4205.5988,-6867.0112 H 90.485234 l 221.834106,623.7776 H -4012.3884 Z" /><path
                 id="path90"
                 style="fill:#95c1d1;fill-opacity:1;stroke-width:11.0351"
                 transform="scale(1,-1)"
                 d="m -3618.0291,-7480.2163 h 3265.87181 l 186.05441,623.7776 H -3997.2939 Z" /><path
                 id="path91"
                 style="fill:#326273;stroke-width:8.90768"
                 transform="scale(1,-1)"
                 d="m -3071.5838,-8103.9937 h 2223.07269 l 221.83411,623.7776 h -2838.4835 z" /><path
                 id="path92"
                 style="fill:#95c1d1;fill-opacity:1;stroke-width:7.13072"
                 transform="scale(1,-1)"
                 d="m -2457.9813,-8727.7715 h 1060.2711 l 322.0173,623.7776 h -1732.9294 z" /></g></g><g
             id="g148"
             transform="matrix(-0.21320777,-0.21320777,0.21320777,-0.21320777,-6132.0538,9526.3293)"
             style="fill:#879dab"><path
               id="path143"
               style="fill:#326273;stroke-width:7.46357"
               transform="scale(1,-1)"
               d="m -3404.24,-5619.4556 h 2711.53774 l -558.16324,623.7776 h -1867.1369 z" /><path
               id="path144"
               style="fill:#95c1d1;fill-opacity:1;stroke-width:10.4006"
               transform="scale(1,-1)"
               d="M -3839.8632,-6243.2334 H 57.782365 l -429.356335,623.7776 H -3618.0291 Z" /><path
               id="path145"
               style="fill:#326273;stroke-width:11.0057"
               transform="scale(1,-1)"
               d="M -4205.5988,-6867.0112 H 90.485234 l 221.834106,623.7776 H -4012.3884 Z" /><path
               id="path146"
               style="fill:#95c1d1;fill-opacity:1;stroke-width:11.0351"
               transform="scale(1,-1)"
               d="m -3618.0291,-7480.2163 h 3265.87181 l 186.05441,623.7776 H -3997.2939 Z" /><path
               id="path147"
               style="fill:#326273;stroke-width:8.90768"
               transform="scale(1,-1)"
               d="m -3071.5838,-8103.9937 h 2223.07269 l 221.83411,623.7776 h -2838.4835 z" /><path
               id="path148"
               style="fill:#95c1d1;fill-opacity:1;stroke-width:7.13072"
               transform="scale(1,-1)"
               d="m -2457.9813,-8727.7715 h 1060.2711 l 322.0173,623.7776 h -1732.9294 z" /></g><g
             id="g155"
             transform="matrix(-0.21320777,0.21320777,-0.21320777,-0.21320777,-2166.0841,10369.452)"
             style="fill:#879dab"><g
               id="g154"><path
                 id="path149"
                 style="fill:#326273;stroke-width:7.46357"
                 transform="scale(1,-1)"
                 d="m -3404.24,-5619.4556 h 2711.53774 l -558.16324,623.7776 h -1867.1369 z" /><path
                 id="path150"
                 style="fill:#95c1d1;fill-opacity:1;stroke-width:10.4006"
                 transform="scale(1,-1)"
                 d="M -3839.8632,-6243.2334 H 57.782365 l -429.356335,623.7776 H -3618.0291 Z" /><path
                 id="path151"
                 style="fill:#326273;stroke-width:11.0057"
                 d="M -4205.5988,-6867.0112 H 90.485234 l 221.834106,623.7776 H -4012.3884 Z"
                 transform="scale(1,-1)" /><path
                 id="path152"
                 style="fill:#95c1d1;fill-opacity:1;stroke-width:11.0351"
                 transform="scale(1,-1)"
                 d="m -3618.0291,-7480.2163 h 3265.87181 l 186.05441,623.7776 H -3997.2939 Z" /><path
                 id="path153"
                 style="fill:#326273;stroke-width:8.90768"
                 transform="scale(1,-1)"
                 d="m -3071.5838,-8103.9937 h 2223.07269 l 221.83411,623.7776 h -2838.4835 z" /><path
                 id="path154"
                 style="fill:#95c1d1;fill-opacity:1;stroke-width:7.13072"
                 transform="scale(1,-1)"
                 d="m -2457.9813,-8727.7715 h 1060.2711 l 322.0173,623.7776 h -1732.9294 z" /></g></g><g
             id="g160"
             transform="matrix(-0.21320777,-0.21320777,0.21320777,-0.21320777,-3854.8006,9526.3293)"
             style="fill:#879dab"><path
               id="path155"
               style="fill:#326273;stroke-width:7.46357"
               transform="scale(1,-1)"
               d="m -3404.24,-5619.4556 h 2711.53774 l -558.16324,623.7776 h -1867.1369 z" /><path
               id="path156"
               style="fill:#95c1d1;fill-opacity:1;stroke-width:10.4006"
               transform="scale(1,-1)"
               d="M -3839.8632,-6243.2334 H 57.782365 l -429.356335,623.7776 H -3618.0291 Z" /><path
               id="path157"
               style="fill:#326273;stroke-width:11.0057"
               transform="scale(1,-1)"
               d="M -4205.5988,-6867.0112 H 90.485234 l 221.834106,623.7776 H -4012.3884 Z" /><path
               id="path158"
               style="fill:#95c1d1;fill-opacity:1;stroke-width:11.0351"
               transform="scale(1,-1)"
               d="m -3618.0291,-7480.2163 h 3265.87181 l 186.05441,623.7776 H -3997.2939 Z" /><path
               id="path159"
               style="fill:#326273;stroke-width:8.90768"
               transform="scale(1,-1)"
               d="m -3071.5838,-8103.9937 h 2223.07269 l 221.83411,623.7776 h -2838.4835 z" /><path
               id="path160"
               style="fill:#95c1d1;fill-opacity:1;stroke-width:7.13072"
               transform="scale(1,-1)"
               d="m -2457.9813,-8727.7715 h 1060.2711 l 322.0173,623.7776 h -1732.9294 z" /></g><g
             id="g166"
             transform="matrix(-0.21320777,0.21320777,-0.21320777,-0.21320777,111.16971,10369.452)"
             style="fill:#879dab"><path
               id="path161"
               style="fill:#326273;stroke-width:7.46357"
               transform="scale(1,-1)"
               d="m -3404.24,-5619.4556 h 2711.53774 l -558.16324,623.7776 h -1867.1369 z" /><path
               id="path162"
               style="fill:#95c1d1;fill-opacity:1;stroke-width:10.4006"
               transform="scale(1,-1)"
               d="M -3839.8632,-6243.2334 H 57.782365 l -429.356335,623.7776 H -3618.0291 Z" /><path
               id="path163"
               style="fill:#326273;stroke-width:11.0057"
               transform="scale(1,-1)"
               d="M -4205.5988,-6867.0112 H 90.485234 l 221.834106,623.7776 H -4012.3884 Z" /><path
               id="path164"
               style="fill:#95c1d1;fill-opacity:1;stroke-width:11.0351"
               transform="scale(1,-1)"
               d="m -3618.0291,-7480.2163 h 3265.87181 l 186.05441,623.7776 H -3997.2939 Z" /><path
               id="path165"
               style="fill:#326273;stroke-width:8.90768"
               transform="scale(1,-1)"
               d="m -3071.5838,-8103.9937 h 2223.07269 l 221.83411,623.7776 h -2838.4835 z" /><path
               id="path166"
               style="fill:#95c1d1;fill-opacity:1;stroke-width:7.13072"
               transform="scale(1,-1)"
               d="m -2457.9813,-8727.7715 h 1060.2711 l 322.0173,623.7776 h -1732.9294 z" /></g><g
             id="g191"
             transform="matrix(0.88584878,0,0,0.88584878,8016.9818,-3638.0418)"
             style="fill:#879dab"><g
               id="g172"
               transform="matrix(0.24068192,-0.24068192,0.24068192,0.24068192,-15024.272,10397.385)"><path
                 id="path167"
                 style="fill:#326273;stroke-width:7.46357"
                 transform="scale(1,-1)"
                 d="m -3404.24,-5619.4556 h 2711.53774 l -558.16324,623.7776 h -1867.1369 z" /><path
                 id="path168"
                 style="fill:#95c1d1;fill-opacity:1;stroke-width:10.4006"
                 transform="scale(1,-1)"
                 d="M -3839.8632,-6243.2334 H 57.782365 l -429.356335,623.7776 H -3618.0291 Z" /><path
                 id="path169"
                 style="fill:#326273;stroke-width:11.0057"
                 transform="scale(1,-1)"
                 d="M -4205.5988,-6867.0112 H 90.485234 l 221.834106,623.7776 H -4012.3884 Z" /><path
                 id="path170"
                 style="fill:#95c1d1;fill-opacity:1;stroke-width:11.0351"
                 transform="scale(1,-1)"
                 d="m -3618.0291,-7480.2163 h 3265.87181 l 186.05441,623.7776 H -3997.2939 Z" /><path
                 id="path171"
                 style="fill:#326273;stroke-width:8.90768"
                 transform="scale(1,-1)"
                 d="m -3071.5838,-8103.9937 h 2223.07269 l 221.83411,623.7776 h -2838.4835 z" /><path
                 id="path172"
                 style="fill:#95c1d1;fill-opacity:1;stroke-width:7.13072"
                 transform="scale(1,-1)"
                 d="m -2457.9813,-8727.7715 h 1060.2711 l 322.0173,623.7776 h -1732.9294 z" /></g><g
               id="g178"
               transform="matrix(0.24068192,0.24068192,-0.24068192,0.24068192,-10553.919,11349.153)"><path
                 id="path173"
                 style="fill:#326273;stroke-width:7.46357"
                 transform="scale(1,-1)"
                 d="m -3404.24,-5619.4556 h 2711.53774 l -558.16324,623.7776 h -1867.1369 z" /><path
                 id="path174"
                 style="fill:#95c1d1;fill-opacity:1;stroke-width:10.4006"
                 transform="scale(1,-1)"
                 d="M -3839.8632,-6243.2334 H 57.782365 l -429.356335,623.7776 H -3618.0291 Z" /><path
                 id="path175"
                 style="fill:#326273;stroke-width:11.0057"
                 transform="scale(1,-1)"
                 d="M -4205.5988,-6867.0112 H 90.485234 l 221.834106,623.7776 H -4012.3884 Z" /><path
                 id="path176"
                 style="fill:#95c1d1;fill-opacity:1;stroke-width:11.0351"
                 transform="scale(1,-1)"
                 d="m -3618.0291,-7480.2163 h 3265.87181 l 186.05441,623.7776 H -3997.2939 Z" /><path
                 id="path177"
                 style="fill:#326273;stroke-width:8.90768"
                 transform="scale(1,-1)"
                 d="m -3071.5838,-8103.9937 h 2223.07269 l 221.83411,623.7776 h -2838.4835 z" /><path
                 id="path178"
                 style="fill:#95c1d1;fill-opacity:1;stroke-width:7.13072"
                 transform="scale(1,-1)"
                 d="m -2457.9813,-8727.7715 h 1060.2711 l 322.0173,623.7776 h -1732.9294 z" /></g><g
               id="g184"
               transform="matrix(0.24068192,-0.24068192,0.24068192,0.24068192,-12419.374,10397.385)"><path
                 id="path179"
                 style="fill:#326273;stroke-width:7.46357"
                 transform="scale(1,-1)"
                 d="m -3404.24,-5619.4556 h 2711.53774 l -558.16324,623.7776 h -1867.1369 z" /><path
                 id="path180"
                 style="fill:#95c1d1;fill-opacity:1;stroke-width:10.4006"
                 transform="scale(1,-1)"
                 d="M -3839.8632,-6243.2334 H 57.782365 l -429.356335,623.7776 H -3618.0291 Z" /><path
                 id="path181"
                 style="fill:#326273;stroke-width:11.0057"
                 transform="scale(1,-1)"
                 d="M -4205.5988,-6867.0112 H 90.485234 l 221.834106,623.7776 H -4012.3884 Z" /><path
                 id="path182"
                 style="fill:#95c1d1;fill-opacity:1;stroke-width:11.0351"
                 transform="scale(1,-1)"
                 d="m -3618.0291,-7480.2163 h 3265.87181 l 186.05441,623.7776 H -3997.2939 Z" /><path
                 id="path183"
                 style="fill:#326273;stroke-width:8.90768"
                 transform="scale(1,-1)"
                 d="m -3071.5838,-8103.9937 h 2223.07269 l 221.83411,623.7776 h -2838.4835 z" /><path
                 id="path184"
                 style="fill:#95c1d1;fill-opacity:1;stroke-width:7.13072"
                 transform="scale(1,-1)"
                 d="m -2457.9813,-8727.7715 h 1060.2711 l 322.0173,623.7776 h -1732.9294 z" /></g><g
               id="g190"
               transform="matrix(0.24068192,0.24068192,-0.24068192,0.24068192,-7949.0204,11349.153)"><path
                 id="path185"
                 style="fill:#326273;stroke-width:7.46357"
                 transform="scale(1,-1)"
                 d="m -3404.24,-5619.4556 h 2711.53774 l -558.16324,623.7776 h -1867.1369 z" /><path
                 id="path186"
                 style="fill:#95c1d1;fill-opacity:1;stroke-width:10.4006"
                 transform="scale(1,-1)"
                 d="M -3839.8632,-6243.2334 H 57.782365 l -429.356335,623.7776 H -3618.0291 Z" /><path
                 id="path187"
                 style="fill:#326273;stroke-width:11.0057"
                 transform="scale(1,-1)"
                 d="M -4205.5988,-6867.0112 H 90.485234 l 221.834106,623.7776 H -4012.3884 Z" /><path
                 id="path188"
                 style="fill:#95c1d1;fill-opacity:1;stroke-width:11.0351"
                 transform="scale(1,-1)"
                 d="m -3618.0291,-7480.2163 h 3265.87181 l 186.05441,623.7776 H -3997.2939 Z" /><path
                 id="path189"
                 style="fill:#326273;stroke-width:8.90768"
                 transform="scale(1,-1)"
                 d="m -3071.5838,-8103.9937 h 2223.07269 l 221.83411,623.7776 h -2838.4835 z" /><path
                 id="path190"
                 style="fill:#95c1d1;fill-opacity:1;stroke-width:7.13072"
                 transform="scale(1,-1)"
                 d="m -2457.9813,-8727.7715 h 1060.2711 l 322.0173,623.7776 h -1732.9294 z" /></g></g></g><g
           id="model"
           fill="#326273"><path
             d="m 6030,2108 c -229,-18 -392,-85 -535,-220 -205,-191 -305,-445 -305,-775 0,-262 56,-474 170,-644 68,-101 193,-217 286,-265 167,-88 272,-108 514,-101 190,5 283,27 425,100 117,60 262,208 327,332 81,158 116,303 125,520 24,604 -300,1015 -832,1053 -49,4 -128,4 -175,0 z m 243,-214 c 115,-26 192,-69 277,-154 84,-84 130,-156 166,-258 119,-344 62,-776 -131,-990 -63,-69 -143,-127 -220,-159 -146,-61 -390,-56 -521,10 -120,61 -230,170 -289,288 -121,237 -126,674 -12,912 62,130 162,238 280,303 108,59 307,80 450,48 z"
             id="path18" /><path
             d="m 531,2086 c -59,-20 -96,-57 -115,-120 -15,-46 -16,-139 -14,-918 3,-830 4,-867 22,-887 33,-36 81,-46 132,-26 24,9 49,25 54,35 6,12 10,317 10,836 0,708 2,816 14,804 8,-8 58,-112 112,-230 410,-908 599,-1320 620,-1348 33,-42 73,-62 126,-62 49,0 98,26 124,64 14,23 149,316 590,1288 l 139,308 5,-818 c 4,-615 8,-822 17,-838 12,-22 70,-54 95,-54 7,0 32,9 55,19 35,16 44,26 53,60 7,28 10,300 8,893 l -3,853 -22,41 c -59,110 -192,147 -292,81 -46,-31 -79,-93 -274,-527 C 1627,740 1506,474 1495,462 c -9,-10 -77,133 -320,680 -169,381 -326,729 -349,773 -45,88 -85,139 -126,160 -42,22 -119,26 -169,11 z"
             id="path19" /><path
             d="m 9697,2082 c -67,-45 -62,26 -64,-967 -2,-703 0,-905 10,-924 6,-13 25,-34 40,-45 28,-20 39,-21 375,-21 322,0 355,2 460,23 226,46 389,127 517,257 155,158 232,365 242,655 9,228 -23,404 -99,555 -125,248 -315,385 -628,452 -107,24 -139,26 -470,30 -337,4 -356,3 -383,-15 z m 704,-197 c 187,-28 293,-77 406,-190 66,-66 90,-98 123,-166 77,-162 104,-349 81,-564 -33,-298 -168,-502 -394,-592 -118,-46 -177,-54 -464,-60 l -273,-6 v 797 796 h 213 c 133,0 247,-5 308,-15 z"
             id="path20" /><path
             d="m 13971,2083 c -18,-9 -42,-31 -52,-47 -18,-30 -19,-70 -19,-925 0,-879 0,-894 20,-926 42,-67 27,-66 650,-63 l 562,3 24,28 c 35,41 34,109 -2,142 l -27,25 h -493 -494 v 360 359 l 449,3 c 437,3 450,4 477,24 37,27 47,67 29,111 -26,62 -33,63 -520,63 h -435 v 325 325 h 458 c 415,0 460,2 492,18 65,32 79,101 31,154 l -29,33 -544,2 c -491,3 -546,1 -577,-14 z"
             id="path21" /><path
             d="m 17875,2085 c -55,-20 -72,-45 -80,-118 -3,-34 -5,-442 -3,-907 3,-817 4,-846 22,-877 38,-63 41,-63 612,-63 577,0 572,-1 600,66 17,41 13,70 -15,105 l -19,24 -474,5 -473,5 -5,850 c -6,953 -1,893 -77,914 -46,13 -39,13 -88,-4 z"
             id="path22" /></g></g></g></g></svg>
