<?xml version="1.0" encoding="UTF-8" standalone="no"?>
<!-- Created with Inkscape (http://www.inkscape.org/) -->

<svg
   width="92.245941mm"
   height="92.456848mm"
   viewBox="0 0 92.245941 92.45685"
   version="1.1"
   id="svg1"
   xml:space="preserve"
   sodipodi:docname="jkl-symbol.svg"
   inkscape:version="1.3 (0e150ed6c4, 2023-07-21)"
   xmlns:inkscape="http://www.inkscape.org/namespaces/inkscape"
   xmlns:sodipodi="http://sodipodi.sourceforge.net/DTD/sodipodi-0.dtd"
   xmlns="http://www.w3.org/2000/svg"
   xmlns:svg="http://www.w3.org/2000/svg"><sodipodi:namedview
     id="namedview1"
     pagecolor="#ffffff"
     bordercolor="#000000"
     borderopacity="0.25"
     inkscape:showpageshadow="2"
     inkscape:pageopacity="0.0"
     inkscape:pagecheckerboard="0"
     inkscape:deskcolor="#d1d1d1"
     inkscape:document-units="mm"
     inkscape:zoom="0.39662834"
     inkscape:cx="112.19571"
     inkscape:cy="279.85897"
     inkscape:window-width="1920"
     inkscape:window-height="1111"
     inkscape:window-x="-9"
     inkscape:window-y="-9"
     inkscape:window-maximized="1"
     inkscape:current-layer="layer1" /><defs
     id="defs1" /><g
     inkscape:label="Lag 1"
     inkscape:groupmode="layer"
     id="layer1"
     transform="translate(245.30154,14.929412)"><circle
       id="path23"
       style="fill:#879dab;fill-opacity:1;stroke:#000000;stroke-width:0.264583"
       cx="-269.83826"
       cy="217.48297"
       r="0.003324789" /><path
       style="fill:#95c1d1;fill-opacity:1;stroke-width:2.89686"
       d=""
       id="path201"
       transform="matrix(0.26458333,0,0,0.26458333,-345.8433,-14.929468)" /><g
       id="g299"
       transform="matrix(0.02004148,0,0,-0.02004148,-147.2603,167.96902)"
       style="stroke:none"><g
         id="g207"
         transform="matrix(-0.21320777,-0.21320777,0.21320777,-0.21320777,-6132.0538,7223.1226)"
         style="fill:#879dab"><path
           id="path202"
           style="fill:#326273;stroke-width:7.46357"
           transform="scale(1,-1)"
           d="m -3404.24,-5619.4556 h 2711.53774 l -558.16324,623.7776 h -1867.1369 z"
           sodipodi:nodetypes="ccccc" /><path
           id="path203"
           style="fill:#95c1d1;fill-opacity:1;stroke-width:10.4006"
           transform="scale(1,-1)"
           d="M -3839.8632,-6243.2334 H 57.782365 l -429.356335,623.7776 H -3618.0291 Z"
           sodipodi:nodetypes="ccccc" /><path
           id="path204"
           style="fill:#326273;stroke-width:11.0057"
           transform="scale(1,-1)"
           d="M -4205.5988,-6867.0112 H 90.485234 l 221.834106,623.7776 H -4012.3884 Z"
           sodipodi:nodetypes="ccccc" /><path
           id="path205"
           style="fill:#95c1d1;fill-opacity:1;stroke-width:11.0351"
           transform="scale(1,-1)"
           d="m -3618.0291,-7480.2163 h 3265.87181 l 186.05441,623.7776 H -3997.2939 Z"
           sodipodi:nodetypes="ccccc" /><path
           id="path206"
           style="fill:#326273;stroke-width:8.90768"
           transform="scale(1,-1)"
           d="m -3071.5838,-8103.9937 h 2223.07269 l 221.83411,623.7776 h -2838.4835 z"
           sodipodi:nodetypes="ccccc" /><path
           id="path207"
           style="fill:#95c1d1;fill-opacity:1;stroke-width:7.13072"
           transform="scale(1,-1)"
           d="m -2457.9813,-8727.7715 h 1060.2711 l 322.0173,623.7776 h -1732.9294 z"
           sodipodi:nodetypes="ccccc" /></g><g
         id="g214"
         transform="matrix(-0.21320777,0.21320777,-0.21320777,-0.21320777,-2166.0841,8066.2451)"
         style="fill:#879dab"><g
           id="g213"><path
             id="path208"
             style="fill:#326273;stroke-width:7.46357"
             transform="scale(1,-1)"
             d="m -3404.24,-5619.4556 h 2711.53774 l -558.16324,623.7776 h -1867.1369 z"
             sodipodi:nodetypes="ccccc" /><path
             id="path209"
             style="fill:#95c1d1;fill-opacity:1;stroke-width:10.4006"
             transform="scale(1,-1)"
             d="M -3839.8632,-6243.2334 H 57.782365 l -429.356335,623.7776 H -3618.0291 Z"
             sodipodi:nodetypes="ccccc" /><path
             id="path210"
             style="fill:#326273;stroke-width:11.0057"
             d="M -4205.5988,-6867.0112 H 90.485234 l 221.834106,623.7776 H -4012.3884 Z"
             sodipodi:nodetypes="ccccc"
             transform="scale(1,-1)" /><path
             id="path211"
             style="fill:#95c1d1;fill-opacity:1;stroke-width:11.0351"
             transform="scale(1,-1)"
             d="m -3618.0291,-7480.2163 h 3265.87181 l 186.05441,623.7776 H -3997.2939 Z"
             sodipodi:nodetypes="ccccc" /><path
             id="path212"
             style="fill:#326273;stroke-width:8.90768"
             transform="scale(1,-1)"
             d="m -3071.5838,-8103.9937 h 2223.07269 l 221.83411,623.7776 h -2838.4835 z"
             sodipodi:nodetypes="ccccc" /><path
             id="path213"
             style="fill:#95c1d1;fill-opacity:1;stroke-width:7.13072"
             transform="scale(1,-1)"
             d="m -2457.9813,-8727.7715 h 1060.2711 l 322.0173,623.7776 h -1732.9294 z"
             sodipodi:nodetypes="ccccc" /></g></g><g
         id="g219"
         transform="matrix(-0.21320777,-0.21320777,0.21320777,-0.21320777,-3854.8006,7223.1226)"
         style="fill:#879dab"><path
           id="path214"
           style="fill:#326273;stroke-width:7.46357"
           transform="scale(1,-1)"
           d="m -3404.24,-5619.4556 h 2711.53774 l -558.16324,623.7776 h -1867.1369 z"
           sodipodi:nodetypes="ccccc" /><path
           id="path215"
           style="fill:#95c1d1;fill-opacity:1;stroke-width:10.4006"
           transform="scale(1,-1)"
           d="M -3839.8632,-6243.2334 H 57.782365 l -429.356335,623.7776 H -3618.0291 Z"
           sodipodi:nodetypes="ccccc" /><path
           id="path216"
           style="fill:#326273;stroke-width:11.0057"
           transform="scale(1,-1)"
           d="M -4205.5988,-6867.0112 H 90.485234 l 221.834106,623.7776 H -4012.3884 Z"
           sodipodi:nodetypes="ccccc" /><path
           id="path217"
           style="fill:#95c1d1;fill-opacity:1;stroke-width:11.0351"
           transform="scale(1,-1)"
           d="m -3618.0291,-7480.2163 h 3265.87181 l 186.05441,623.7776 H -3997.2939 Z"
           sodipodi:nodetypes="ccccc" /><path
           id="path218"
           style="fill:#326273;stroke-width:8.90768"
           transform="scale(1,-1)"
           d="m -3071.5838,-8103.9937 h 2223.07269 l 221.83411,623.7776 h -2838.4835 z"
           sodipodi:nodetypes="ccccc" /><path
           id="path219"
           style="fill:#95c1d1;fill-opacity:1;stroke-width:7.13072"
           transform="scale(1,-1)"
           d="m -2457.9813,-8727.7715 h 1060.2711 l 322.0173,623.7776 h -1732.9294 z"
           sodipodi:nodetypes="ccccc" /></g><g
         id="g225"
         transform="matrix(-0.21320777,0.21320777,-0.21320777,-0.21320777,111.16971,8066.2451)"
         style="fill:#879dab"><path
           id="path220"
           style="fill:#326273;stroke-width:7.46357"
           transform="scale(1,-1)"
           d="m -3404.24,-5619.4556 h 2711.53774 l -558.16324,623.7776 h -1867.1369 z"
           sodipodi:nodetypes="ccccc" /><path
           id="path221"
           style="fill:#95c1d1;fill-opacity:1;stroke-width:10.4006"
           transform="scale(1,-1)"
           d="M -3839.8632,-6243.2334 H 57.782365 l -429.356335,623.7776 H -3618.0291 Z"
           sodipodi:nodetypes="ccccc" /><path
           id="path222"
           style="fill:#326273;stroke-width:11.0057"
           transform="scale(1,-1)"
           d="M -4205.5988,-6867.0112 H 90.485234 l 221.834106,623.7776 H -4012.3884 Z"
           sodipodi:nodetypes="ccccc" /><path
           id="path223"
           style="fill:#95c1d1;fill-opacity:1;stroke-width:11.0351"
           transform="scale(1,-1)"
           d="m -3618.0291,-7480.2163 h 3265.87181 l 186.05441,623.7776 H -3997.2939 Z"
           sodipodi:nodetypes="ccccc" /><path
           id="path224"
           style="fill:#326273;stroke-width:8.90768"
           transform="scale(1,-1)"
           d="m -3071.5838,-8103.9937 h 2223.07269 l 221.83411,623.7776 h -2838.4835 z"
           sodipodi:nodetypes="ccccc" /><path
           id="path225"
           style="fill:#95c1d1;fill-opacity:1;stroke-width:7.13072"
           transform="scale(1,-1)"
           d="m -2457.9813,-8727.7715 h 1060.2711 l 322.0173,623.7776 h -1732.9294 z"
           sodipodi:nodetypes="ccccc" /></g><g
         id="g250"
         transform="matrix(0.88584878,0,0,0.88584878,8016.9818,-5941.2485)"
         style="fill:#879dab"><g
           id="g231"
           transform="matrix(0.24068192,-0.24068192,0.24068192,0.24068192,-15024.272,10397.385)"><path
             id="path226"
             style="fill:#326273;stroke-width:7.46357"
             transform="scale(1,-1)"
             d="m -3404.24,-5619.4556 h 2711.53774 l -558.16324,623.7776 h -1867.1369 z"
             sodipodi:nodetypes="ccccc" /><path
             id="path227"
             style="fill:#95c1d1;fill-opacity:1;stroke-width:10.4006"
             transform="scale(1,-1)"
             d="M -3839.8632,-6243.2334 H 57.782365 l -429.356335,623.7776 H -3618.0291 Z"
             sodipodi:nodetypes="ccccc" /><path
             id="path228"
             style="fill:#326273;stroke-width:11.0057"
             transform="scale(1,-1)"
             d="M -4205.5988,-6867.0112 H 90.485234 l 221.834106,623.7776 H -4012.3884 Z"
             sodipodi:nodetypes="ccccc" /><path
             id="path229"
             style="fill:#95c1d1;fill-opacity:1;stroke-width:11.0351"
             transform="scale(1,-1)"
             d="m -3618.0291,-7480.2163 h 3265.87181 l 186.05441,623.7776 H -3997.2939 Z"
             sodipodi:nodetypes="ccccc" /><path
             id="path230"
             style="fill:#326273;stroke-width:8.90768"
             transform="scale(1,-1)"
             d="m -3071.5838,-8103.9937 h 2223.07269 l 221.83411,623.7776 h -2838.4835 z"
             sodipodi:nodetypes="ccccc" /><path
             id="path231"
             style="fill:#95c1d1;fill-opacity:1;stroke-width:7.13072"
             transform="scale(1,-1)"
             d="m -2457.9813,-8727.7715 h 1060.2711 l 322.0173,623.7776 h -1732.9294 z"
             sodipodi:nodetypes="ccccc" /></g><g
           id="g237"
           transform="matrix(0.24068192,0.24068192,-0.24068192,0.24068192,-10553.919,11349.153)"><path
             id="path232"
             style="fill:#326273;stroke-width:7.46357"
             transform="scale(1,-1)"
             d="m -3404.24,-5619.4556 h 2711.53774 l -558.16324,623.7776 h -1867.1369 z"
             sodipodi:nodetypes="ccccc" /><path
             id="path233"
             style="fill:#95c1d1;fill-opacity:1;stroke-width:10.4006"
             transform="scale(1,-1)"
             d="M -3839.8632,-6243.2334 H 57.782365 l -429.356335,623.7776 H -3618.0291 Z"
             sodipodi:nodetypes="ccccc" /><path
             id="path234"
             style="fill:#326273;stroke-width:11.0057"
             transform="scale(1,-1)"
             d="M -4205.5988,-6867.0112 H 90.485234 l 221.834106,623.7776 H -4012.3884 Z"
             sodipodi:nodetypes="ccccc" /><path
             id="path235"
             style="fill:#95c1d1;fill-opacity:1;stroke-width:11.0351"
             transform="scale(1,-1)"
             d="m -3618.0291,-7480.2163 h 3265.87181 l 186.05441,623.7776 H -3997.2939 Z"
             sodipodi:nodetypes="ccccc" /><path
             id="path236"
             style="fill:#326273;stroke-width:8.90768"
             transform="scale(1,-1)"
             d="m -3071.5838,-8103.9937 h 2223.07269 l 221.83411,623.7776 h -2838.4835 z"
             sodipodi:nodetypes="ccccc" /><path
             id="path237"
             style="fill:#95c1d1;fill-opacity:1;stroke-width:7.13072"
             transform="scale(1,-1)"
             d="m -2457.9813,-8727.7715 h 1060.2711 l 322.0173,623.7776 h -1732.9294 z"
             sodipodi:nodetypes="ccccc" /></g><g
           id="g243"
           transform="matrix(0.24068192,-0.24068192,0.24068192,0.24068192,-12419.374,10397.385)"><path
             id="path238"
             style="fill:#326273;stroke-width:7.46357"
             transform="scale(1,-1)"
             d="m -3404.24,-5619.4556 h 2711.53774 l -558.16324,623.7776 h -1867.1369 z"
             sodipodi:nodetypes="ccccc" /><path
             id="path239"
             style="fill:#95c1d1;fill-opacity:1;stroke-width:10.4006"
             transform="scale(1,-1)"
             d="M -3839.8632,-6243.2334 H 57.782365 l -429.356335,623.7776 H -3618.0291 Z"
             sodipodi:nodetypes="ccccc" /><path
             id="path240"
             style="fill:#326273;stroke-width:11.0057"
             transform="scale(1,-1)"
             d="M -4205.5988,-6867.0112 H 90.485234 l 221.834106,623.7776 H -4012.3884 Z"
             sodipodi:nodetypes="ccccc" /><path
             id="path241"
             style="fill:#95c1d1;fill-opacity:1;stroke-width:11.0351"
             transform="scale(1,-1)"
             d="m -3618.0291,-7480.2163 h 3265.87181 l 186.05441,623.7776 H -3997.2939 Z"
             sodipodi:nodetypes="ccccc" /><path
             id="path242"
             style="fill:#326273;stroke-width:8.90768"
             transform="scale(1,-1)"
             d="m -3071.5838,-8103.9937 h 2223.07269 l 221.83411,623.7776 h -2838.4835 z"
             sodipodi:nodetypes="ccccc" /><path
             id="path243"
             style="fill:#95c1d1;fill-opacity:1;stroke-width:7.13072"
             transform="scale(1,-1)"
             d="m -2457.9813,-8727.7715 h 1060.2711 l 322.0173,623.7776 h -1732.9294 z"
             sodipodi:nodetypes="ccccc" /></g><g
           id="g249"
           transform="matrix(0.24068192,0.24068192,-0.24068192,0.24068192,-7949.0204,11349.153)"><path
             id="path244"
             style="fill:#326273;stroke-width:7.46357"
             transform="scale(1,-1)"
             d="m -3404.24,-5619.4556 h 2711.53774 l -558.16324,623.7776 h -1867.1369 z"
             sodipodi:nodetypes="ccccc" /><path
             id="path245"
             style="fill:#95c1d1;fill-opacity:1;stroke-width:10.4006"
             transform="scale(1,-1)"
             d="M -3839.8632,-6243.2334 H 57.782365 l -429.356335,623.7776 H -3618.0291 Z"
             sodipodi:nodetypes="ccccc" /><path
             id="path246"
             style="fill:#326273;stroke-width:11.0057"
             transform="scale(1,-1)"
             d="M -4205.5988,-6867.0112 H 90.485234 l 221.834106,623.7776 H -4012.3884 Z"
             sodipodi:nodetypes="ccccc" /><path
             id="path247"
             style="fill:#95c1d1;fill-opacity:1;stroke-width:11.0351"
             transform="scale(1,-1)"
             d="m -3618.0291,-7480.2163 h 3265.87181 l 186.05441,623.7776 H -3997.2939 Z"
             sodipodi:nodetypes="ccccc" /><path
             id="path248"
             style="fill:#326273;stroke-width:8.90768"
             transform="scale(1,-1)"
             d="m -3071.5838,-8103.9937 h 2223.07269 l 221.83411,623.7776 h -2838.4835 z"
             sodipodi:nodetypes="ccccc" /><path
             id="path249"
             style="fill:#95c1d1;fill-opacity:1;stroke-width:7.13072"
             transform="scale(1,-1)"
             d="m -2457.9813,-8727.7715 h 1060.2711 l 322.0173,623.7776 h -1732.9294 z"
             sodipodi:nodetypes="ccccc" /></g></g><g
         id="g255"
         transform="matrix(-0.21320777,-0.21320777,0.21320777,-0.21320777,-6132.0538,9526.3293)"
         style="fill:#879dab"><path
           id="path250"
           style="fill:#326273;stroke-width:7.46357"
           transform="scale(1,-1)"
           d="m -3404.24,-5619.4556 h 2711.53774 l -558.16324,623.7776 h -1867.1369 z"
           sodipodi:nodetypes="ccccc" /><path
           id="path251"
           style="fill:#95c1d1;fill-opacity:1;stroke-width:10.4006"
           transform="scale(1,-1)"
           d="M -3839.8632,-6243.2334 H 57.782365 l -429.356335,623.7776 H -3618.0291 Z"
           sodipodi:nodetypes="ccccc" /><path
           id="path252"
           style="fill:#326273;stroke-width:11.0057"
           transform="scale(1,-1)"
           d="M -4205.5988,-6867.0112 H 90.485234 l 221.834106,623.7776 H -4012.3884 Z"
           sodipodi:nodetypes="ccccc" /><path
           id="path253"
           style="fill:#95c1d1;fill-opacity:1;stroke-width:11.0351"
           transform="scale(1,-1)"
           d="m -3618.0291,-7480.2163 h 3265.87181 l 186.05441,623.7776 H -3997.2939 Z"
           sodipodi:nodetypes="ccccc" /><path
           id="path254"
           style="fill:#326273;stroke-width:8.90768"
           transform="scale(1,-1)"
           d="m -3071.5838,-8103.9937 h 2223.07269 l 221.83411,623.7776 h -2838.4835 z"
           sodipodi:nodetypes="ccccc" /><path
           id="path255"
           style="fill:#95c1d1;fill-opacity:1;stroke-width:7.13072"
           transform="scale(1,-1)"
           d="m -2457.9813,-8727.7715 h 1060.2711 l 322.0173,623.7776 h -1732.9294 z"
           sodipodi:nodetypes="ccccc" /></g><g
         id="g262"
         transform="matrix(-0.21320777,0.21320777,-0.21320777,-0.21320777,-2166.0841,10369.452)"
         style="fill:#879dab"><g
           id="g261"><path
             id="path256"
             style="fill:#326273;stroke-width:7.46357"
             transform="scale(1,-1)"
             d="m -3404.24,-5619.4556 h 2711.53774 l -558.16324,623.7776 h -1867.1369 z"
             sodipodi:nodetypes="ccccc" /><path
             id="path257"
             style="fill:#95c1d1;fill-opacity:1;stroke-width:10.4006"
             transform="scale(1,-1)"
             d="M -3839.8632,-6243.2334 H 57.782365 l -429.356335,623.7776 H -3618.0291 Z"
             sodipodi:nodetypes="ccccc" /><path
             id="path258"
             style="fill:#326273;stroke-width:11.0057"
             d="M -4205.5988,-6867.0112 H 90.485234 l 221.834106,623.7776 H -4012.3884 Z"
             sodipodi:nodetypes="ccccc"
             transform="scale(1,-1)" /><path
             id="path259"
             style="fill:#95c1d1;fill-opacity:1;stroke-width:11.0351"
             transform="scale(1,-1)"
             d="m -3618.0291,-7480.2163 h 3265.87181 l 186.05441,623.7776 H -3997.2939 Z"
             sodipodi:nodetypes="ccccc" /><path
             id="path260"
             style="fill:#326273;stroke-width:8.90768"
             transform="scale(1,-1)"
             d="m -3071.5838,-8103.9937 h 2223.07269 l 221.83411,623.7776 h -2838.4835 z"
             sodipodi:nodetypes="ccccc" /><path
             id="path261"
             style="fill:#95c1d1;fill-opacity:1;stroke-width:7.13072"
             transform="scale(1,-1)"
             d="m -2457.9813,-8727.7715 h 1060.2711 l 322.0173,623.7776 h -1732.9294 z"
             sodipodi:nodetypes="ccccc" /></g></g><g
         id="g267"
         transform="matrix(-0.21320777,-0.21320777,0.21320777,-0.21320777,-3854.8006,9526.3293)"
         style="fill:#879dab"><path
           id="path262"
           style="fill:#326273;stroke-width:7.46357"
           transform="scale(1,-1)"
           d="m -3404.24,-5619.4556 h 2711.53774 l -558.16324,623.7776 h -1867.1369 z"
           sodipodi:nodetypes="ccccc" /><path
           id="path263"
           style="fill:#95c1d1;fill-opacity:1;stroke-width:10.4006"
           transform="scale(1,-1)"
           d="M -3839.8632,-6243.2334 H 57.782365 l -429.356335,623.7776 H -3618.0291 Z"
           sodipodi:nodetypes="ccccc" /><path
           id="path264"
           style="fill:#326273;stroke-width:11.0057"
           transform="scale(1,-1)"
           d="M -4205.5988,-6867.0112 H 90.485234 l 221.834106,623.7776 H -4012.3884 Z"
           sodipodi:nodetypes="ccccc" /><path
           id="path265"
           style="fill:#95c1d1;fill-opacity:1;stroke-width:11.0351"
           transform="scale(1,-1)"
           d="m -3618.0291,-7480.2163 h 3265.87181 l 186.05441,623.7776 H -3997.2939 Z"
           sodipodi:nodetypes="ccccc" /><path
           id="path266"
           style="fill:#326273;stroke-width:8.90768"
           transform="scale(1,-1)"
           d="m -3071.5838,-8103.9937 h 2223.07269 l 221.83411,623.7776 h -2838.4835 z"
           sodipodi:nodetypes="ccccc" /><path
           id="path267"
           style="fill:#95c1d1;fill-opacity:1;stroke-width:7.13072"
           transform="scale(1,-1)"
           d="m -2457.9813,-8727.7715 h 1060.2711 l 322.0173,623.7776 h -1732.9294 z"
           sodipodi:nodetypes="ccccc" /></g><g
         id="g273"
         transform="matrix(-0.21320777,0.21320777,-0.21320777,-0.21320777,111.16971,10369.452)"
         style="fill:#879dab"><path
           id="path268"
           style="fill:#326273;stroke-width:7.46357"
           transform="scale(1,-1)"
           d="m -3404.24,-5619.4556 h 2711.53774 l -558.16324,623.7776 h -1867.1369 z"
           sodipodi:nodetypes="ccccc" /><path
           id="path269"
           style="fill:#95c1d1;fill-opacity:1;stroke-width:10.4006"
           transform="scale(1,-1)"
           d="M -3839.8632,-6243.2334 H 57.782365 l -429.356335,623.7776 H -3618.0291 Z"
           sodipodi:nodetypes="ccccc" /><path
           id="path270"
           style="fill:#326273;stroke-width:11.0057"
           transform="scale(1,-1)"
           d="M -4205.5988,-6867.0112 H 90.485234 l 221.834106,623.7776 H -4012.3884 Z"
           sodipodi:nodetypes="ccccc" /><path
           id="path271"
           style="fill:#95c1d1;fill-opacity:1;stroke-width:11.0351"
           transform="scale(1,-1)"
           d="m -3618.0291,-7480.2163 h 3265.87181 l 186.05441,623.7776 H -3997.2939 Z"
           sodipodi:nodetypes="ccccc" /><path
           id="path272"
           style="fill:#326273;stroke-width:8.90768"
           transform="scale(1,-1)"
           d="m -3071.5838,-8103.9937 h 2223.07269 l 221.83411,623.7776 h -2838.4835 z"
           sodipodi:nodetypes="ccccc" /><path
           id="path273"
           style="fill:#95c1d1;fill-opacity:1;stroke-width:7.13072"
           transform="scale(1,-1)"
           d="m -2457.9813,-8727.7715 h 1060.2711 l 322.0173,623.7776 h -1732.9294 z"
           sodipodi:nodetypes="ccccc" /></g><g
         id="g298"
         transform="matrix(0.88584878,0,0,0.88584878,8016.9818,-3638.0418)"
         style="fill:#879dab"><g
           id="g279"
           transform="matrix(0.24068192,-0.24068192,0.24068192,0.24068192,-15024.272,10397.385)"><path
             id="path274"
             style="fill:#326273;stroke-width:7.46357"
             transform="scale(1,-1)"
             d="m -3404.24,-5619.4556 h 2711.53774 l -558.16324,623.7776 h -1867.1369 z"
             sodipodi:nodetypes="ccccc" /><path
             id="path275"
             style="fill:#95c1d1;fill-opacity:1;stroke-width:10.4006"
             transform="scale(1,-1)"
             d="M -3839.8632,-6243.2334 H 57.782365 l -429.356335,623.7776 H -3618.0291 Z"
             sodipodi:nodetypes="ccccc" /><path
             id="path276"
             style="fill:#326273;stroke-width:11.0057"
             transform="scale(1,-1)"
             d="M -4205.5988,-6867.0112 H 90.485234 l 221.834106,623.7776 H -4012.3884 Z"
             sodipodi:nodetypes="ccccc" /><path
             id="path277"
             style="fill:#95c1d1;fill-opacity:1;stroke-width:11.0351"
             transform="scale(1,-1)"
             d="m -3618.0291,-7480.2163 h 3265.87181 l 186.05441,623.7776 H -3997.2939 Z"
             sodipodi:nodetypes="ccccc" /><path
             id="path278"
             style="fill:#326273;stroke-width:8.90768"
             transform="scale(1,-1)"
             d="m -3071.5838,-8103.9937 h 2223.07269 l 221.83411,623.7776 h -2838.4835 z"
             sodipodi:nodetypes="ccccc" /><path
             id="path279"
             style="fill:#95c1d1;fill-opacity:1;stroke-width:7.13072"
             transform="scale(1,-1)"
             d="m -2457.9813,-8727.7715 h 1060.2711 l 322.0173,623.7776 h -1732.9294 z"
             sodipodi:nodetypes="ccccc" /></g><g
           id="g285"
           transform="matrix(0.24068192,0.24068192,-0.24068192,0.24068192,-10553.919,11349.153)"><path
             id="path280"
             style="fill:#326273;stroke-width:7.46357"
             transform="scale(1,-1)"
             d="m -3404.24,-5619.4556 h 2711.53774 l -558.16324,623.7776 h -1867.1369 z"
             sodipodi:nodetypes="ccccc" /><path
             id="path281"
             style="fill:#95c1d1;fill-opacity:1;stroke-width:10.4006"
             transform="scale(1,-1)"
             d="M -3839.8632,-6243.2334 H 57.782365 l -429.356335,623.7776 H -3618.0291 Z"
             sodipodi:nodetypes="ccccc" /><path
             id="path282"
             style="fill:#326273;stroke-width:11.0057"
             transform="scale(1,-1)"
             d="M -4205.5988,-6867.0112 H 90.485234 l 221.834106,623.7776 H -4012.3884 Z"
             sodipodi:nodetypes="ccccc" /><path
             id="path283"
             style="fill:#95c1d1;fill-opacity:1;stroke-width:11.0351"
             transform="scale(1,-1)"
             d="m -3618.0291,-7480.2163 h 3265.87181 l 186.05441,623.7776 H -3997.2939 Z"
             sodipodi:nodetypes="ccccc" /><path
             id="path284"
             style="fill:#326273;stroke-width:8.90768"
             transform="scale(1,-1)"
             d="m -3071.5838,-8103.9937 h 2223.07269 l 221.83411,623.7776 h -2838.4835 z"
             sodipodi:nodetypes="ccccc" /><path
             id="path285"
             style="fill:#95c1d1;fill-opacity:1;stroke-width:7.13072"
             transform="scale(1,-1)"
             d="m -2457.9813,-8727.7715 h 1060.2711 l 322.0173,623.7776 h -1732.9294 z"
             sodipodi:nodetypes="ccccc" /></g><g
           id="g291"
           transform="matrix(0.24068192,-0.24068192,0.24068192,0.24068192,-12419.374,10397.385)"><path
             id="path286"
             style="fill:#326273;stroke-width:7.46357"
             transform="scale(1,-1)"
             d="m -3404.24,-5619.4556 h 2711.53774 l -558.16324,623.7776 h -1867.1369 z"
             sodipodi:nodetypes="ccccc" /><path
             id="path287"
             style="fill:#95c1d1;fill-opacity:1;stroke-width:10.4006"
             transform="scale(1,-1)"
             d="M -3839.8632,-6243.2334 H 57.782365 l -429.356335,623.7776 H -3618.0291 Z"
             sodipodi:nodetypes="ccccc" /><path
             id="path288"
             style="fill:#326273;stroke-width:11.0057"
             transform="scale(1,-1)"
             d="M -4205.5988,-6867.0112 H 90.485234 l 221.834106,623.7776 H -4012.3884 Z"
             sodipodi:nodetypes="ccccc" /><path
             id="path289"
             style="fill:#95c1d1;fill-opacity:1;stroke-width:11.0351"
             transform="scale(1,-1)"
             d="m -3618.0291,-7480.2163 h 3265.87181 l 186.05441,623.7776 H -3997.2939 Z"
             sodipodi:nodetypes="ccccc" /><path
             id="path290"
             style="fill:#326273;stroke-width:8.90768"
             transform="scale(1,-1)"
             d="m -3071.5838,-8103.9937 h 2223.07269 l 221.83411,623.7776 h -2838.4835 z"
             sodipodi:nodetypes="ccccc" /><path
             id="path291"
             style="fill:#95c1d1;fill-opacity:1;stroke-width:7.13072"
             transform="scale(1,-1)"
             d="m -2457.9813,-8727.7715 h 1060.2711 l 322.0173,623.7776 h -1732.9294 z"
             sodipodi:nodetypes="ccccc" /></g><g
           id="g297"
           transform="matrix(0.24068192,0.24068192,-0.24068192,0.24068192,-7949.0204,11349.153)"><path
             id="path292"
             style="fill:#326273;stroke-width:7.46357"
             transform="scale(1,-1)"
             d="m -3404.24,-5619.4556 h 2711.53774 l -558.16324,623.7776 h -1867.1369 z"
             sodipodi:nodetypes="ccccc" /><path
             id="path293"
             style="fill:#95c1d1;fill-opacity:1;stroke-width:10.4006"
             transform="scale(1,-1)"
             d="M -3839.8632,-6243.2334 H 57.782365 l -429.356335,623.7776 H -3618.0291 Z"
             sodipodi:nodetypes="ccccc" /><path
             id="path294"
             style="fill:#326273;stroke-width:11.0057"
             transform="scale(1,-1)"
             d="M -4205.5988,-6867.0112 H 90.485234 l 221.834106,623.7776 H -4012.3884 Z"
             sodipodi:nodetypes="ccccc" /><path
             id="path295"
             style="fill:#95c1d1;fill-opacity:1;stroke-width:11.0351"
             transform="scale(1,-1)"
             d="m -3618.0291,-7480.2163 h 3265.87181 l 186.05441,623.7776 H -3997.2939 Z"
             sodipodi:nodetypes="ccccc" /><path
             id="path296"
             style="fill:#326273;stroke-width:8.90768"
             transform="scale(1,-1)"
             d="m -3071.5838,-8103.9937 h 2223.07269 l 221.83411,623.7776 h -2838.4835 z"
             sodipodi:nodetypes="ccccc" /><path
             id="path297"
             style="fill:#95c1d1;fill-opacity:1;stroke-width:7.13072"
             transform="scale(1,-1)"
             d="m -2457.9813,-8727.7715 h 1060.2711 l 322.0173,623.7776 h -1732.9294 z"
             sodipodi:nodetypes="ccccc" /></g></g></g></g></svg>
